<svg xmlns="http://www.w3.org/2000/svg" viewBox="0 0 1906 566.36"><defs><style>.cls-1{fill:#fff;}.cls-2{fill:#f8f9fa;}.cls-3{fill:#a2c7eb;}.cls-16,.cls-17,.cls-23,.cls-24,.cls-4,.cls-6{fill:none;stroke-miterlimit:10;}.cls-4{stroke:#a2c7eb;}.cls-5{fill:#4479a3 ;}.cls-6{stroke:#6f8bbf;}.cls-16,.cls-17,.cls-23,.cls-24,.cls-6{stroke-linecap:round;}.cls-7{fill:#e06a58;}.cls-8{fill:#0a2240;}.cls-9{fill:#f9a07b;}.cls-10{fill:#02254f;}.cls-11{fill:#325f73;}.cls-12{fill:#0b2d50;}.cls-13{fill:#3c738c;}.cls-14{fill:#56c4f9;}.cls-15{fill:#225570;}.cls-16{stroke:#0b2d50;}.cls-16,.cls-17,.cls-23{stroke-width:2px;}.cls-17,.cls-24{stroke:#cc454e;}.cls-18{fill:#262d40;}.cls-19{fill:#cc454e;}.cls-20{fill:#e8729b;}.cls-21{fill:#3d86e0;}.cls-22{fill:#3a92c9;}.cls-23{stroke:#3a92c9;}</style></defs><g id="Calque_2" data-name="Calque 2"><rect class="cls-1" y="9" width="1906" height="557"/></g><g id="Calque_1" data-name="Calque 1"><path class="cls-2" d="M1569.28,541.56c140.12-61.22,202.52-231-25-314.25-150.62-55.1-244.29-23.67-413.74-60.12C923.7,122.7,892.86-11.72,641.25,54.42c-133.3,35-225.71,133.76-242,246-15.94,109.89,51.83,185.29,190.33,236.88C914.85,545.23,1240.72,543.79,1569.28,541.56Z" transform="translate(0 9)"/><path class="cls-2" d="M992.42,58.66c-13.69,48.83,37.17,97.17,90.75,117.21s115,17.67,172.44,8.1c24.77-4.12,50.23-9.92,69.47-23.94s30.4-38.37,19.85-58c-9.3-17.34-32-26.23-53.56-30.79s-44.54-6.42-63.78-16c-18.25-9.11-31.19-24.18-47.06-36.12C1151.2-3,1110-13.88,1071.9-6.91S1004.07,17.15,992.42,58.66Z" transform="translate(0 9)"/><path class="cls-3" d="M1361.69,283.26V246.31h-14a71.49,71.49,0,0,0-7.53-18.15l9.91-9.92-26.13-26.13L1314,202a71.79,71.79,0,0,0-18.16-7.54v-14h-36.94v14a71.79,71.79,0,0,0-18.16,7.54l-9.92-9.91-26.12,26.13,9.9,9.92a72.59,72.59,0,0,0-7.53,18.15h-14v36.95h14a72.5,72.5,0,0,0,7.53,18.16l-9.9,9.92,26.12,26.12,9.92-9.9a72.5,72.5,0,0,0,18.16,7.53v14h36.94v-14a72.5,72.5,0,0,0,18.16-7.53l9.92,9.9,26.13-26.12-9.91-9.92a71.4,71.4,0,0,0,7.53-18.16Zm-84.3,13.53a32,32,0,1,1,32-32A32,32,0,0,1,1277.39,296.79Z" transform="translate(0 9)"/><path class="cls-4" d="M1250.06,375.82l-7-18.32-7,2.66a38,38,0,0,0-7.19-7.57l3-6.8-17.93-8-3,6.8a38,38,0,0,0-10.44-.28l-2.67-6.95-18.32,7,2.67,7a37.82,37.82,0,0,0-7.58,7.19l-6.8-3-8,17.93,6.8,3a38.75,38.75,0,0,0-.28,10.44l-6.94,2.67,7,18.32,7-2.67a38.66,38.66,0,0,0,7.19,7.58l-3,6.8,17.92,8,3-6.79a38.73,38.73,0,0,0,10.44.28l2.66,6.94,18.32-7-2.66-6.94a38.61,38.61,0,0,0,7.57-7.19l6.8,3,8-17.92-6.8-3a37.94,37.94,0,0,0,.28-10.44Zm-39.23,22.75a17,17,0,1,1,9.77-22A17,17,0,0,1,1210.83,398.57Z" transform="translate(0 9)"/><path class="cls-4" d="M1190,311.56l-4.75-12.38-4.69,1.8a25.71,25.71,0,0,0-4.86-5.12l2-4.6-12.12-5.39-2.05,4.59a26,26,0,0,0-7-.19l-1.8-4.69-12.38,4.75,1.8,4.69a26,26,0,0,0-5.12,4.86l-4.59-2-5.4,12.11,4.59,2.05a26,26,0,0,0-.19,7.05l-4.69,1.8,4.75,12.38,4.69-1.8a26,26,0,0,0,4.86,5.12l-2,4.6,12.11,5.39,2-4.59a26,26,0,0,0,7.06.19l1.8,4.69,12.37-4.75-1.8-4.69a26,26,0,0,0,5.12-4.86l4.6,2,5.39-12.11-4.59-2a25.55,25.55,0,0,0,.19-7.05Zm-26.51,15.37a11.49,11.49,0,1,1,6.61-14.84A11.49,11.49,0,0,1,1163.52,326.93Z" transform="translate(0 9)"/><path class="cls-5" d="M1185.72,94.82a58.37,58.37,0,1,1-58.37-58.37A58.3,58.3,0,0,1,1185.72,94.82Z" transform="translate(0 9)"/><circle class="cls-1" cx="1127.35" cy="75.61" r="19.11" transform="translate(-0.77 147.69) rotate(-7.04)"/><path class="cls-1" d="M1163.55,133.26a58.4,58.4,0,0,1-72.39,0c3.73-16.43,7.17-30.61,10.74-34.2,5-5,18.46-8,25.44-8s21,3.57,23.61,6.17C1156.24,102.51,1160.8,117.08,1163.55,133.26Z" transform="translate(0 9)"/><path class="cls-5" d="M1043.47,238.71V209.88a14.24,14.24,0,0,1,14.24-14.24h90.81a14.24,14.24,0,0,1,14.24,14.24v28.83A14.23,14.23,0,0,1,1148.52,253h-90.79A14.24,14.24,0,0,1,1043.47,238.71Z" transform="translate(0 9)"/><polyline class="cls-5" points="1081.82 246.2 1037.87 289.01 1109.1 253.01"/><path class="cls-1" d="M1054.49,209.17V209a2.12,2.12,0,0,1,2.12-2.12h44.89a2.12,2.12,0,0,1,2.12,2.12v.15a2.12,2.12,0,0,1-2.12,2.12h-44.89A2.12,2.12,0,0,1,1054.49,209.17Z" transform="translate(0 9)"/><path class="cls-1" d="M1105.64,209.17V209a2.12,2.12,0,0,1,2.12-2.12h39.18a2.12,2.12,0,0,1,2.12,2.12v.15a2.12,2.12,0,0,1-2.12,2.12h-39.18A2.12,2.12,0,0,1,1105.64,209.17Z" transform="translate(0 9)"/><path class="cls-1" d="M1088.53,218.82v-.15a2.12,2.12,0,0,1,2.12-2.12h56.29a2.12,2.12,0,0,1,2.12,2.12v.15a2.12,2.12,0,0,1-2.12,2.12h-56.29A2.12,2.12,0,0,1,1088.53,218.82Z" transform="translate(0 9)"/><path class="cls-1" d="M1054.49,218.82v-.15a2.12,2.12,0,0,1,2.12-2.12h25.14a2.12,2.12,0,0,1,2.12,2.12v.15a2.12,2.12,0,0,1-2.12,2.12h-25.14A2.12,2.12,0,0,1,1054.49,218.82Z" transform="translate(0 9)"/><path class="cls-1" d="M1096.35,228.47v-.16a2.11,2.11,0,0,1,2.12-2.11h48.47a2.11,2.11,0,0,1,2.12,2.11v.16a2.12,2.12,0,0,1-2.12,2.12h-48.47A2.12,2.12,0,0,1,1096.35,228.47Z" transform="translate(0 9)"/><path class="cls-1" d="M1054.49,228.47v-.16a2.11,2.11,0,0,1,2.12-2.11h33.48a2.11,2.11,0,0,1,2.12,2.11v.16a2.12,2.12,0,0,1-2.12,2.12h-33.48A2.12,2.12,0,0,1,1054.49,228.47Z" transform="translate(0 9)"/><path class="cls-1" d="M1054.49,238.11V238a2.12,2.12,0,0,1,2.12-2.12H1069a2.12,2.12,0,0,1,2.11,2.12v.15a2.12,2.12,0,0,1-2.11,2.12h-12.43A2.12,2.12,0,0,1,1054.49,238.11Z" transform="translate(0 9)"/><path class="cls-1" d="M1075.55,238.11V238a2.12,2.12,0,0,1,2.12-2.12h69.27a2.12,2.12,0,0,1,2.12,2.12v.15a2.12,2.12,0,0,1-2.12,2.12h-69.27A2.12,2.12,0,0,1,1075.55,238.11Z" transform="translate(0 9)"/><circle class="cls-5" cx="768.38" cy="174.21" r="56.16" transform="translate(286.26 806.37) rotate(-65.05)"/><circle class="cls-1" cx="755.15" cy="201.78" r="13.61" transform="translate(-24.2 270.65) rotate(-19.35)"/><polygon class="cls-5" points="748 215.66 747.34 207.03 754.49 202.15 762.29 205.89 762.95 214.52 755.8 219.41 748 215.66"/><circle class="cls-1" cx="781.61" cy="146.65" r="13.61" transform="translate(-3.75 280.67) rotate(-19.67)"/><polygon class="cls-5" points="774.86 159.71 775.33 148.74 783.6 141.51 791.4 145.26 790.94 156.23 782.66 163.46 774.86 159.71"/><path class="cls-1" d="M764.57,195.49l-10.41-5,7.69-17.75c.49-1.12,1-2.23,1.6-3.32l9-17.1,10.4,5-7.41,17.48c-.58,1.35-1.21,2.67-1.91,4Z" transform="translate(0 9)"/><path class="cls-5" d="M807.39,204.43c2-.93,34.22.54,34.22.54l-23.22-21.33Z" transform="translate(0 9)"/><circle class="cls-5" cx="898.93" cy="57.35" r="55.19" transform="translate(489.39 868.62) rotate(-66.61)"/><rect class="cls-1" x="897.08" y="19.31" width="3.69" height="46.35"/><rect class="cls-1" x="876.72" y="48.06" width="3.69" height="46.98" transform="matrix(-0.57, -0.82, 0.82, -0.57, 1319.75, 843.66)"/><path class="cls-1" d="M904,57.35a5.08,5.08,0,1,1-5.08-5.08A5.09,5.09,0,0,1,904,57.35Z" transform="translate(0 9)"/><path class="cls-3" d="M1048.77,431.08c-3.27-50.46,18.81-102.68,56-132.55C1105.91,349.24,1084.06,400.56,1048.77,431.08Z" transform="translate(0 9)"/><path class="cls-6" d="M1098.69,312.11a669.22,669.22,0,0,0-40.47,91.27c-13.69,38.27-24.45,78.93-47.88,111" transform="translate(0 9)"/><path class="cls-3" d="M1037,462.82c18.82-42.1,56.17-73.9,97.36-82.91C1116.87,425,1077.43,459.45,1037,462.82Z" transform="translate(0 9)"/><path class="cls-6" d="M1124.29,389.19q-42.19,37.13-85.81,72.16" transform="translate(0 9)"/><path class="cls-3" d="M1025.93,499.5c25.15-37.56,71.54-57.16,109.93-46.44C1107.63,490.14,1061.13,509.79,1025.93,499.5Z" transform="translate(0 9)"/><path class="cls-6" d="M1126.65,455.77a366.1,366.1,0,0,1-105.17,45" transform="translate(0 9)"/><path class="cls-3" d="M1039.52,450.06c8-42.29-4-89.43-30.86-120.61C997.65,371,1008.15,419.71,1039.52,450.06Z" transform="translate(0 9)"/><path class="cls-6" d="M1011.42,340.24c5.29,39.33,14.7,76.18,29.28,112.19" transform="translate(0 9)"/><path class="cls-3" d="M1025.71,486.07c-3.42-43.47-25.7-84.3-58.29-106.84a185.65,185.65,0,0,0,17.72,65.4C996.31,467.81,1012.73,482.51,1025.71,486.07Z" transform="translate(0 9)"/><path class="cls-6" d="M972.25,388a345.5,345.5,0,0,0,54.28,99" transform="translate(0 9)"/><path class="cls-3" d="M1277.38,475.64c17.79-46.27,58.7-83.81,103.82-95.24C1361.43,426.05,1321.08,462.84,1277.38,475.64Z" transform="translate(0 9)"/><path class="cls-6" d="M1370.26,390a657.86,657.86,0,0,0-73.18,64.78c-27.77,28.52-54,60.33-87.82,79.35" transform="translate(0 9)"/><path class="cls-3" d="M1254,499.13c33.89-29.83,79.94-42.92,120-34.14C1340.05,498,1291.08,512.6,1254,499.13Z" transform="translate(0 9)"/><path class="cls-6" d="M1361.29,469.15q-52.51,15.87-105.42,29.26" transform="translate(0 9)"/><path class="cls-3" d="M1229.14,527.27c37.63-23.19,86.66-21.72,116.2,3.49C1305.19,552.26,1256,550.79,1229.14,527.27Z" transform="translate(0 9)"/><path class="cls-6" d="M1336.1,529.41a355,355,0,0,1-111.4-2.83" transform="translate(0 9)"/><path class="cls-3" d="M1261.43,488.77c24.43-34.39,33.09-81.31,22.16-120C1256.82,401.26,1246.13,448.92,1261.43,488.77Z" transform="translate(0 9)"/><path class="cls-6" d="M1281.6,379.45c-11.46,37.2-18.22,73.86-20.09,111.91" transform="translate(0 9)"/><path class="cls-3" d="M1234.47,515.22c14.78-40.12,11.83-85.59-7.73-119a183.15,183.15,0,0,0-11.14,65.48C1216,486.93,1224.43,506.74,1234.47,515.22Z" transform="translate(0 9)"/><path class="cls-6" d="M1227.38,406.06a339.9,339.9,0,0,0,7.41,110.29" transform="translate(0 9)"/><path class="cls-3" d="M773.3,394.74c-18.14-55.46-68.74-100.27-127.6-113C670.45,329.73,715.33,367.92,773.3,394.74Z" transform="translate(0 9)"/><path class="cls-3" d="M776.37,403.34c-39.72-22.46-89.49-27.41-132.63-13.21A187.29,187.29,0,0,0,776.37,403.34Z" transform="translate(0 9)"/><path class="cls-3" d="M787.35,415.37c-42.93-5.95-87.88,4.63-122.74,28.89C704.14,458.63,751.57,449.31,787.35,415.37Z" transform="translate(0 9)"/><path class="cls-3" d="M800.73,441.64c-42.5-.17-84.3,20-109.28,52.83a93.45,93.45,0,0,0,56.36-6.33C765.17,480.28,779.71,466.86,800.73,441.64Z" transform="translate(0 9)"/><path class="cls-3" d="M830.7,485.6c-41.91-7.19-86.57,5.8-116.8,34a93.86,93.86,0,0,0,56.7,3.08C789.06,517.79,805.68,507,830.7,485.6Z" transform="translate(0 9)"/><path class="cls-3" d="M785.45,397.37C757.77,360.06,750.26,309.79,766,267c12,20.34,22.37,41.83,27.2,64.69S797.09,378.93,785.45,397.37Z" transform="translate(0 9)"/><path class="cls-3" d="M802.36,433.36c-6.55-39.63,7-81.64,35.63-110.35C841.28,364,828.73,405.79,802.36,433.36Z" transform="translate(0 9)"/><path class="cls-6" d="M658.59,291.69c84.24,53.9,150.12,134.24,184.9,225.52" transform="translate(0 9)"/><path class="cls-6" d="M768.6,286.69a668,668,0,0,1,18.59,126.69" transform="translate(0 9)"/><path class="cls-6" d="M831.69,339.1A246.92,246.92,0,0,1,801.39,435" transform="translate(0 9)"/><path class="cls-6" d="M661.48,391.1A682.74,682.74,0,0,0,778.61,403" transform="translate(0 9)"/><path class="cls-6" d="M684.75,441a314.34,314.34,0,0,0,103-25.39" transform="translate(0 9)"/><path class="cls-6" d="M706.08,488.48l98.59-49.19" transform="translate(0 9)"/><path class="cls-6" d="M727.46,517.43c42.9-8.28,55.64-18.16,103.26-31.83" transform="translate(0 9)"/><path class="cls-7" d="M999.06,438.85s3.71,34,7.87,36.76c7.42,4.9,93.39,16.22,93.39,16.22l-2.82,22.37s-117.73,10.58-122.74,4.7c-8.68-10.21-23.94-59.45-23.94-59.45Z" transform="translate(0 9)"/><path class="cls-5" d="M942.29,351.24l9.52-22.84s25.8,12.13,34.31,27.1c9.11,16,20.25,101.1,20.25,101.1s-45.56,10.5-53.94,6S942.29,351.24,942.29,351.24Z" transform="translate(0 9)"/><path class="cls-8" d="M869.84,245.24c-6.66-2.45-13.71-4.58-20.85-4s-14.43,4.32-16.85,10.6c-1.73,4.44-.94,9.68-3.67,13.68-2.61,3.83-7.8,5.43-12.65,5.75s-9.76-.31-14.59.32c-14.92,2-25.57,18.19-20.67,31.47,2,5.29,6,10.34,5,15.85-1,5.9-7.15,9.79-9.7,15.26-3.37,7.29.67,16.13,7.33,21.1s15.33,6.83,23.74,8.08c11.58,1.73,23.53,2.55,35,.1s22.38-8.47,28.29-17.9c2.63-4.17,4.23-8.88,7.28-12.8,6.31-8.09,17.48-11.23,26.28-17,9.61-6.29,16.67-18.53,11-28.11-5.46-9.21-19.67-11.26-25.36-20.33-2.36-3.75-2.92-8.2-4.44-12.29S879.7,248.85,869.84,245.24Z" transform="translate(0 9)"/><path class="cls-9" d="M908.67,358.18c1.68,1.93,3.66,4.05,6.41,4.23s5.32-1.84,7.19-3.83A73,73,0,0,0,940.84,323c-2.39-1.36-4.7-2.67-6.79-3.89a10.29,10.29,0,0,1-4.22-4.64,9,9,0,0,1-.63-4.38c1.36-12.75,2.56-19.85,7-32.79-21.26-4.8-41.32-10.49-52.85-20.12-1.41,5.93-3.07,17.54-6.61,29.06-3.78,12.19-9.68,24.24-19.69,29.43A210.83,210.83,0,0,1,908.67,358.18Z" transform="translate(0 9)"/><path class="cls-7" d="M929.2,310.09a9,9,0,0,0,.63,4.37c-12.58,15.26-40.71-4.67-53.05-28.23,3.54-11.51,5.2-23.12,6.61-29.06,11.51,9.63,31.59,15.35,52.85,20.13C931.76,290.24,930.56,297.32,929.2,310.09Z" transform="translate(0 9)"/><path class="cls-5" d="M964.23,494.56c-2.78,18.42,17.1,38.24,17.59,48.07-42.2,0-130.61,2.58-175.63-3.54-2.05-11.36,20.18-36.91,20.18-62.14,0-3.34-.14-7-.41-10.94-.71-11.26-2.37-24.65-4.22-38.39-5-36.84-11.7-76.24-6.76-84.42,9.66-15.92,32.26-26.73,43.47-31.38,3.85-1.59,6.36-2.46,6.54-2.56,14.06,24,42.66,44.42,53.46,43.51,3-.24,11.91-3.34,17.79-33,2.29,1.3,4.58,2.51,6.85,3.67,11.17,5.82,21.65,10.62,24.67,18.1,8,19.68,15.79,69.31,14.06,87s-8.9,31.4-13.92,49.27c-1.17,4.19-2.24,8.63-3.11,13.41C964.57,492.29,964.4,493.41,964.23,494.56Z" transform="translate(0 9)"/><path class="cls-10" d="M981.82,542.63c-42.2,0-130.61,2.58-175.63-3.54-2.05-11.36,20.18-36.91,20.18-62.14,0-3.34-.14-7-.41-10.94-.71-11.26-2.37-24.65-4.22-38.39,8,8.43,19.64-27.17,24.79-16.75,27.89,56.29,49.88,71.1,88.1,71.1a146.64,146.64,0,0,0,33.27-4.16c-1.17,4.19-2.24,8.63-3.11,13.41-.2,1.09-.39,2.21-.56,3.36C961.45,513,981.33,532.78,981.82,542.63Z" transform="translate(0 9)"/><path class="cls-5" d="M943.09,323.48c-1.81,13.18-7.19,30.93-22.82,35.61-21.13,6.33-51.7-33.15-61.82-47.27,3.85-1.59,6.36-2.46,6.54-2.56,14.06,24,42.66,44.42,53.46,43.51,3-.24,11.91-3.34,17.79-33C938.53,321.09,940.82,322.3,943.09,323.48Z" transform="translate(0 9)"/><polygon class="cls-11" points="951.77 531.81 951.62 546.51 1214.43 548.07 1214.97 531.4 951.77 531.81"/><polygon class="cls-11" points="1328.33 400.66 1322.48 394.73 1131.06 393.47 1035.02 532.35 1040.04 536.39 1328.33 400.66"/><polygon class="cls-12" points="1134.75 398.61 1040.04 536.39 1220.95 537.29 1328.33 400.66 1134.75 398.61"/><ellipse class="cls-13" cx="1180.47" cy="476.03" rx="21.06" ry="10.53"/><ellipse class="cls-14" cx="974.78" cy="257.16" rx="29.49" ry="19.45" transform="translate(543.39 1177.33) rotate(-79.44)"/><path class="cls-12" d="M993.92,210.48c-2,13.94-8.19,29.3-17.26,46.27-3.19-13.9-5.22-30.84-8-47.78s-6.52-33.95-12.84-47.82a82.49,82.49,0,0,0-4.65-8.71,30.87,30.87,0,0,1,11.16,1,37.35,37.35,0,0,1,15.26,8.33c7.19,6.39,12,15.1,14.87,24.29A54.48,54.48,0,0,1,993.92,210.48Z" transform="translate(0 9)"/><path class="cls-9" d="M983.28,224.89c-.11,2.75-.29,5.54-.55,8.32-3.86,45.11-22.8,76-51.78,76-40.91,0-67.43-45.88-67.43-90.83,0-44.34,27.16-76.43,59-72.72,18.33,2.1,31.73,8.19,41.24,17.11a56.22,56.22,0,0,1,13.94,21.26c3.54,9.14,5.25,19.48,5.61,30.62,0,0,0,.07,0,.1C983.43,218.09,983.39,221.45,983.28,224.89Z" transform="translate(0 9)"/><path class="cls-7" d="M983.28,224.89a45.54,45.54,0,0,0-5.52-12.43,128.7,128.7,0,0,1-80.14,12.87c-5.19,4.32-10.26,8.58-15.36,12.84.1-20.52.39-34.41,8.39-44.34,7.51-9.33,20-12.84,31.91-14.36a147.58,147.58,0,0,1,40.27.25c5.1.71,10.39,1.82,14.83,4.39,3.55,9.14,5.26,19.48,5.62,30.62,0,0,0,.07,0,.11C983.43,218.09,983.39,221.45,983.28,224.89Z" transform="translate(0 9)"/><path class="cls-12" d="M989.18,197.12A76,76,0,0,1,968.63,209c-22.49,9.07-51.7,12.07-74.47,11-11.19,24.58-15.72,33.4-18.59,54.85-10.93-10.26-19.83-29.05-22.48-43.82s-2.35-30.16,1.75-44.62c6.46-22.81,22.75-35,34-41a64.68,64.68,0,0,1,7.33-3.39c14.43-5.58,30.69-5.07,45.49-.54a54,54,0,0,1,20.58,12c11.55,10.42,18.69,24.55,23.3,35.13C987,191.83,988.21,194.76,989.18,197.12Z" transform="translate(0 9)"/><path class="cls-15" d="M993.92,210.48a68.57,68.57,0,0,0-4.29-14.33,49.74,49.74,0,0,0-4-7.58C980.46,180.5,973,173.85,964,170.92a79.74,79.74,0,0,0-8.14-9.75,62.83,62.83,0,0,0-35-18.48,66.59,66.59,0,0,0-31.84,2.71,64.64,64.64,0,0,1,7.32-3.39c14.43-5.58,30.69-5.07,45.49-.54a54.22,54.22,0,0,1,20.59,12,37.48,37.48,0,0,1,15.26,8.33c7.19,6.39,12,15.1,14.87,24.29A54.77,54.77,0,0,1,993.92,210.48Z" transform="translate(0 9)"/><path class="cls-16" d="M907.2,238.13c7.56-4.32,15.41-6.27,26.41-2.25" transform="translate(0 9)"/><path class="cls-16" d="M959,237.83c6.48-4.84,16.07-5.33,21.07,0" transform="translate(0 9)"/><path class="cls-17" d="M951.16,262.48c.66,3.42.31,11-1.32,14.41" transform="translate(0 9)"/><ellipse class="cls-18" cx="925.61" cy="268.87" rx="3.12" ry="4.92"/><ellipse class="cls-18" cx="966.39" cy="266.58" rx="3.12" ry="4.92"/><path class="cls-19" d="M947.3,283.59a23.73,23.73,0,0,1-1.78,2.8c-1.84,2.46-5,5.85-9.21,7.17h0a12,12,0,0,1-5.92.39c-6.37-1.14-8-7-8.35-11.55-.07-.88-.07-1.69-.06-2.44a24.08,24.08,0,0,1,.24-3C932.36,282.5,947.3,283.59,947.3,283.59Z" transform="translate(0 9)"/><path class="cls-1" d="M947.3,283.59a23.73,23.73,0,0,1-1.78,2.8c-5.19-.07-15.81-2.73-23.56-6.43a24.08,24.08,0,0,1,.24-3C932.36,282.5,947.3,283.59,947.3,283.59Z" transform="translate(0 9)"/><path class="cls-20" d="M936.29,293.54a12,12,0,0,1-5.92.39c-6.37-1.13-8-7-8.35-11.54a17.36,17.36,0,0,1,14.27,11.15Z" transform="translate(0 9)"/><path class="cls-21" d="M875.68,230.35s-.36-21.14,8.44-42.15c11-26.37,33.54-37.64,55.36-38.41,26.3-.93,42.76,16.72,42.76,16.72s-8.56-15.1-25.45-19.45c-11.09-2.84-27.82-3.3-41.25,2.16-13.84,5.61-31.08,21.19-37.32,37.66S869,229,869,229Z" transform="translate(0 9)"/><ellipse class="cls-14" cx="872.03" cy="254.51" rx="20.5" ry="31.06" transform="translate(-21.64 100.54) rotate(-5.94)"/><ellipse class="cls-21" cx="866.58" cy="256.76" rx="13.31" ry="23.42" transform="matrix(0.99, -0.15, 0.15, 0.99, -28.53, 140.62)"/><ellipse class="cls-22" cx="939.65" cy="312.09" rx="10.92" ry="6.8"/><path class="cls-23" d="M884.8,280.35s16,20.62,43.93,22.74" transform="translate(0 9)"/><path class="cls-9" d="M951.62,483.56l-1,27.11s-98.05,29.39-114.25,20.09c-7.9-4.54-15.27-29.53-20.78-53.93-5.77-25.64-9.46-50.6-9.46-50.6L863.55,415s0,35,2,55.3c.69,7.55,1.69,13,3,13.94C873.64,487.56,951.62,483.56,951.62,483.56Z" transform="translate(0 9)"/><path class="cls-7" d="M865.54,470.25c-10.45,3.39-30.61,8.63-50,6.56-5.77-25.63-9.46-50.59-9.46-50.59L863.55,415S863.59,450,865.54,470.25Z" transform="translate(0 9)"/><path class="cls-9" d="M948.82,483.83c14.58-3.12,39.27-10.61,49.51-13.19,7.28-1.83,26.21,8,31.22,17.21,2.18,4,4.25,26.89-3.33,24.53-3.8-1.18-3.17-11-4.35-15-1-3.26-4.06-6.41-8.75-9.13,3.13,7.82,3,14.64,2.68,23.08a12,12,0,0,1-1.09,5.43c-.92,1.61-2.88,2.76-4.58,2.05s-2.32-2.87-2.71-4.75a153.77,153.77,0,0,1-3.24-20.38c.14,7.24,0,14.5-.47,21.72-.34,5.53-3.09,8.56-6.46,7.6-1.51-.43-2.12-1.82-2.77-3.65-1,3.54-3.56,7.46-6.85,6-2-.9-3.24-8.12-2.88-15.55-6.31,3.92-13.43,5.58-21.63,5.95-7.36.34-14.89-1-19.32-6C944.24,501.89,946.82,490.33,948.82,483.83Z" transform="translate(0 9)"/><path class="cls-24" d="M994.64,518.25a51.92,51.92,0,0,0-1.51-17.48" transform="translate(0 9)"/><path class="cls-5" d="M857.09,358.11c-4.17-11.75-19.44-35.79-19.44-35.79s-23.32,9.69-31.59,26.16c-14,27.87-6.89,107.9-6.89,107.9,18.88,7.9,56.75,8,72.88,5.75C872.05,462.13,865.45,381.59,857.09,358.11Z" transform="translate(0 9)"/><path class="cls-10" d="M860.06,363a517.76,517.76,0,0,1,10.85,86.63" transform="translate(0 9)"/><rect class="cls-12" x="582" y="543.04" width="995" height="23.32"/></g></svg>