<svg xmlns="http://www.w3.org/2000/svg" xmlns:xlink="http://www.w3.org/1999/xlink" viewBox="0 0 1906 552"><defs><style>.cls-1{fill:none;}.cls-2{fill:#fff;}.cls-3{fill:#f8f9fa;}.cls-4{fill:#c8ddf5;}.cls-5{fill:#abbdd2;}.cls-6{fill:#d5e9ff;}.cls-7{fill:#ffa497;}.cls-8{fill:#f45763;}.cls-9{fill:#4479a3 ;}.cls-10{fill:#02254f;}.cls-11{fill:#154dca;}.cls-12{fill:#524786;}.cls-13{fill:#38295c;}.cls-14{fill:#d16452;}.cls-15{fill:#994234;}.cls-16{fill:#471052;}.cls-17{fill:#d25e5a;}.cls-18{fill:#ffa7a4;}.cls-19{fill:#ff7571;}.cls-20{fill:#261b41;}.cls-21{fill:#8375d4;}.cls-22{fill:#a04f58;}.cls-23{fill:#713349;}.cls-24{clip-path:url(#clip-path);}.cls-25{fill:#ffc5c7;}.cls-26{fill:#d5edff;}.cls-27{fill:#ff8a8b;}.cls-28{fill:#050233;}.cls-29{fill:#211e87;}.cls-30{fill:#00b0f9;}.cls-31{fill:#e21926;}.cls-32{fill:#ff8384;}.cls-33{font-size:28.77px;fill:#d5c8da;font-family:BebasKai;}.cls-34{letter-spacing:-0.04em;}.cls-35{letter-spacing:-0.02em;}.cls-36{letter-spacing:0em;}</style><clipPath id="clip-path"><path class="cls-1" d="M797.65,147.77a101,101,0,1,1-202.08,0c0-55.8,45.24-120.66,101-120.66S797.65,92,797.65,147.77Z"/></clipPath></defs><g id="Calque_2" data-name="Calque 2"><rect class="cls-2" width="1906" height="551"/></g><g id="Calque_1" data-name="Calque 1"><path class="cls-3" d="M1547,453.89c-54,55.48-146.72,88.1-244.92,88.1H487c-163.83,0-255.7-129.63-149.45-202.62S350,204,513.83,145.5c158.77-56.7,213,64.17,359.24-14.92s359.21-71.63,406,8.95,35.76,109,135,126.85,196.26,119.38,136.72,183.55C1549.53,451.26,1548.28,452.59,1547,453.89Z"/><path class="cls-4" d="M1361.83,476.38c-58.1,4.93-97.27,113.85-242.54,48.38,0,0,16-47.55,87.41-77.18S1361.83,476.38,1361.83,476.38Z"/><path class="cls-5" d="M1139.13,516.61a405.16,405.16,0,0,1,47-20.6c4-1.53,8.05-2.91,12.12-4.26s8.14-2.64,12.24-3.91,8.23-2.38,12.37-3.51c2.07-.55,4.13-1.13,6.21-1.65l6.26-1.51,6.27-1.43,6.31-1.25,6.32-1.24c2.11-.4,4.23-.71,6.35-1,4.25-.62,8.48-1.34,12.76-1.74s8.52-1.06,12.83-1.22c17.11-1.25,34.41-1,51.28,1.89a347.25,347.25,0,0,0-50.84,2.67l-3.15.36-3.14.48-6.29.92c-4.19.53-8.35,1.38-12.51,2.13-2.08.41-4.17.7-6.25,1.13l-6.21,1.29-6.22,1.29-6.18,1.48-6.19,1.42c-2.06.49-4.11,1.05-6.16,1.57l-6.15,1.59c-2.06.52-4.08,1.16-6.13,1.7-4.09,1.12-8.19,2.22-12.24,3.48s-8.15,2.39-12.19,3.69C1171.34,505.39,1155.26,511,1139.13,516.61Z"/><path class="cls-6" d="M1369,291c-70.9,50.69-38.11,220.53-274.71,247.27,0,0-15.8-73.27,53.39-165.88S1369,291,1369,291Z"/><path class="cls-4" d="M1110,517.83a397.72,397.72,0,0,1,37.38-63.75,448.66,448.66,0,0,1,47.76-56.72A392.44,392.44,0,0,1,1252,349.67c20.42-14,42.45-26,66-33.46a411.06,411.06,0,0,0-61.22,39.93,593.22,593.22,0,0,0-54.34,48.47,727.43,727.43,0,0,0-48.67,54.31C1138.4,477.86,1124,497.58,1110,517.83Z"/><path class="cls-4" d="M604.11,461.25c57.62,9,89,120.41,238.53,65.33,0,0-12.56-48.55-81.75-83.14S604.11,461.25,604.11,461.25Z"/><path class="cls-5" d="M823.43,517.05c-15.69-6.77-31.34-13.45-47.16-19.64-3.95-1.58-7.94-3-11.9-4.54s-8-2.92-12-4.33c-2-.68-4-1.46-6-2.12l-6-2c-2-.67-4-1.37-6-2l-6.08-1.85-6.06-1.92-6.11-1.72L710,475.18c-2-.57-4.11-1-6.15-1.57-4.1-1-8.18-2.17-12.33-3l-6.2-1.36-3.1-.7-3.12-.58a347.79,347.79,0,0,0-50.53-6.25c17-1.65,34.31-.72,51.29,1.73,4.28.46,8.47,1.37,12.71,2.12s8.41,1.72,12.6,2.64c2.09.47,4.19.93,6.27,1.48l6.21,1.69,6.21,1.68,6.16,1.88,6.13,1.94c2,.66,4.05,1.39,6.08,2.09,4,1.41,8.12,2.77,12.09,4.36s8,3.08,11.94,4.77,7.91,3.29,11.79,5.1A405.93,405.93,0,0,1,823.43,517.05Z"/><path class="cls-6" d="M642.41,283.22c63.85,52.81,21.37,211.69,244,252.89,0,0,19.89-68.43-39.53-160.89S642.41,283.22,642.41,283.22Z"/><path class="cls-4" d="M872.82,515.65c-12-20.1-24.42-39.73-37.72-58.69s-27.45-37.24-42.55-54.7a568.89,568.89,0,0,0-48.22-49.62,397.57,397.57,0,0,0-55.25-42.12c21.83,8.58,42,21.41,60.43,36a371.52,371.52,0,0,1,50.82,49,423.09,423.09,0,0,1,41.46,57.05A372.74,372.74,0,0,1,872.82,515.65Z"/><path class="cls-7" d="M1017.87,431.13c-8,9.49-15.23,25.22-19.73,27.72s-12.07,3.37-19.24,26.42,29,19.91,29,19.91,15.46-8.89,21.7-30.34l15.49-13.74Z"/><path class="cls-8" d="M989.9,502.65a58,58,0,0,0,21.63-14.3c10-10.53,11.25-29.26,11.25-29.26l4.78,8.92,9.54-10.2,4.61-.45,3.39,3.74-15.49,13.74c-6.24,21.45-21.7,30.34-21.7,30.34s-10,.86-18.41-1.65A9,9,0,0,1,989.9,502.65Z"/><path class="cls-9" d="M1072.09,348.54c-11.07,8.1-17.68,14-23.19,25s-40,50.6-42.23,54.13,19.4,41,36.69,50.16c0,0,26.1-30.11,41.16-41.49s9.91-51.78,2.94-65.37A106,106,0,0,0,1072.09,348.54Z"/><path class="cls-10" d="M1071.69,421.43V398.94s2.93-1.17,5.22,6.42a20.83,20.83,0,0,1,.43,9l16.81-12.64c.7,14.15-1.58,28.55-9.63,34.64-15.06,11.38-41.16,41.49-41.16,41.49-4.46-2.37-9.21-6.62-13.76-11.69C1040.23,455.55,1060.4,435.12,1071.69,421.43Z"/><path class="cls-7" d="M964.3,496.29c-2.87.9-5,2.27-5,5.9s.63,9.36,2,11.61,8.47,3.59,8.47,3.59-.48-14.95-2-17.7A7,7,0,0,0,964.3,496.29Z"/><path class="cls-8" d="M961.3,513.8a10.23,10.23,0,0,1-1-2.62c1.54,1.52,2.06,1.53,3.95,1.73l5.38,1.68c.08,1.68.12,2.8.12,2.8S962.68,516.05,961.3,513.8Z"/><path class="cls-7" d="M971.17,490.82c-3.5.38-7,3-7,6.62s-1.24,13.74,0,15.36,7.37,6.25,9.5,6.62,5.72-.25,5.23-1.37S971.17,490.82,971.17,490.82Z"/><path class="cls-8" d="M963.64,510.08c2.66,3,9.43,2.73,9.43,2.73s3,3.18,3.35,4.2c.22.62,1.44,1.43,1.61,2.06a9.57,9.57,0,0,1-4.36.35c-2.09-.37-8-4.81-9.4-6.51l-.63-2.82Z"/><path class="cls-7" d="M984.27,484.85c-10.73.6-12.73,1.6-13.1,6s-.13,17.11,1.25,20.36,2.12,6.12,3.87,7.87a6.87,6.87,0,0,0,4.36,1.75s5.88-8.62,6.13-15.87S984.27,484.85,984.27,484.85Z"/><path class="cls-8" d="M978.1,513.63a65.29,65.29,0,0,0,1.9-16.06c.06-3.73,3.52,15.75,2,21.09-.77,1.33-1.32,2.14-1.32,2.14a6.87,6.87,0,0,1-4.36-1.75c-1.75-1.75-2.5-4.63-3.87-7.87a6.06,6.06,0,0,1-.26-.76C972.86,512.25,975.09,513.44,978.1,513.63Z"/><path class="cls-7" d="M1007.76,506.81c-.68,6-8.49,8.11-9.37,11.11s-.25,5.75-1.75,6.5-7.74-2.75-7.49-6.75a7.78,7.78,0,0,1-5.24,4c-3.63.62-4.5-2-3.88-6s.5-6.11.38-10.85-1.25-9.12.87-14.36,5-9.87,10.74-9,9.25,8.12,12.37,10.62S1008.51,500.19,1007.76,506.81Z"/><path class="cls-8" d="M989.15,517.67c.35-7.59.75-13.8.75-15s-.4-9.28,2.46-9.77c.44-.08,6.74,3.91,6.86,6.61s0,7.53-2,8.9S989.15,517.67,989.15,517.67Z"/><path class="cls-9" d="M1249.4,364.72c-11.38-14.45-15.3-15.91-27.05-22.77s-56.31-24.24-65.49-26.44-46.21,15.06-58.35,20.57-27.61,10.92-30.25,16.29c-8.82,18,8.65,43.44,8.74,96.81,0,27.95,6.42,90.81,6.42,90.81s139.91.26,141.87-2.68,6.85-103.31,9.3-123.87S1249.4,364.72,1249.4,364.72Z"/><path class="cls-11" d="M1068.78,380.51a98.52,98.52,0,0,1-2-10.3,95.74,95.74,0,0,1-1-10.45,96,96,0,0,1,2,10.3A101,101,0,0,1,1068.78,380.51Z"/><path class="cls-10" d="M1121.1,359.49c-5.41-2-18.22,1.49-20.56,2.3s1.38-9.19,2.76-10.43,3.58-4.12,7.8-2.82,7.77,6.14,8.38,7.73A23.62,23.62,0,0,0,1121.1,359.49Z"/><path class="cls-10" d="M1166.14,367.84c-1.93-.09-13.18-5.26-15.87-6.55s-14.89-1.89-23.08.4c0,0,15.77-10.65,25-10.56s12.66,3.4,13.4,6.34S1166.14,367.84,1166.14,367.84Z"/><path class="cls-10" d="M1106,517.48c1.5-1.47,92.87,1.47,94.71-8.08s3.1-26.91,3.1-26.91c-11,5.88-27,3.43-27,3.43,10.65-3.48,26.07-20.95,26.81-26.09,2.26-15.84-6.2-59.5-6.2-59.5l6.2-12.48,7.25-4a100.67,100.67,0,0,1,25.52,19.45,98.67,98.67,0,0,0-1.82,10.18c-2.31,19.38-6.79,109.7-8.94,122.43-28.3,1-79.6,2.92-113.93,4.1-16.63,0-28.3,0-28.3,0s-.22-8.27-.72-20.13C1092.28,519.3,1105.06,518.39,1106,517.48Z"/><path class="cls-9" d="M1124.55,362.15c9.86-1.19,25.7-9.73,31.94-6.8s7.72,10.47,9,11.76,6.79-5.15,6.79-20.94.49-32-11.14-34.15-41.73,9.18-47.79,13.77a28.67,28.67,0,0,0-10.29,13.71c-1.65,4.47-6.06,22.46-4,22.65s7.72-11.57,11.94-11.94S1121.88,362.47,1124.55,362.15Z"/><path class="cls-11" d="M1118.94,348c-2.52-6-5.27-11.2-5.18-15.33s1-7,5.6-8.26,6.52,1.19,6.8,7.43S1118.94,348,1118.94,348Z"/><path class="cls-11" d="M1154.93,336.89c9.6-8.71,10.68-18.44,9.78-20.46s-4.86-3.49-4.86-3.49-1.56,6.33-.65,7.9S1154.93,336.89,1154.93,336.89Z"/><path class="cls-11" d="M1139.65,357.93a50.35,50.35,0,0,1,7.29-2.45,25.49,25.49,0,0,1,7.7-.86,6.85,6.85,0,0,1,3.81,1.3c1,1,1.8,1.87,2.66,2.87a29.78,29.78,0,0,1,4.05,6.62,3.3,3.3,0,0,0,.89,1.29c.14.15.64-.22,1-.68a20.72,20.72,0,0,0,1.9-3.21,26.07,26.07,0,0,0,2.23-7.18,64.2,64.2,0,0,0,.88-7.58c.18-2.55.24-5.1.22-7.66a67.49,67.49,0,0,1-.34,15.36,24.59,24.59,0,0,1-2.18,7.46,20.45,20.45,0,0,1-2,3.4,4.11,4.11,0,0,1-.78.78,1.67,1.67,0,0,1-.6.28,1.23,1.23,0,0,1-.78-.09,2.2,2.2,0,0,1-.87-.84,8,8,0,0,1-.51-.88,28.63,28.63,0,0,0-3.84-6.49c-.8-.95-1.69-2-2.52-2.78a6.38,6.38,0,0,0-3.33-1.2,24.84,24.84,0,0,0-7.52.57A60.27,60.27,0,0,0,1139.65,357.93Z"/><path class="cls-11" d="M1117.05,354.64a29.72,29.72,0,0,0-3.22-2.74,10.32,10.32,0,0,0-1.75-1.08l-.46-.17c-.15,0-.31-.06-.45-.1a2.63,2.63,0,0,0-.41,0,2.38,2.38,0,0,0-.36.18,19.15,19.15,0,0,0-5.86,5.79c-.8,1.12-1.49,2.38-2.41,3.52a9.37,9.37,0,0,1-1.56,1.59,2.36,2.36,0,0,1-1.17.54,1,1,0,0,1-.79-.25,1.43,1.43,0,0,1-.39-.61,5.64,5.64,0,0,1-.11-2.26,18.87,18.87,0,0,1,.33-2.13c.32-1.39.69-2.76,1.14-4.1-.23,1.4-.51,2.79-.66,4.19a20.85,20.85,0,0,0-.18,2.08,5.23,5.23,0,0,0,.2,1.94.55.55,0,0,0,.18.27c.07,0,.09.06.19,0a1.7,1.7,0,0,0,.72-.4,8.74,8.74,0,0,0,1.35-1.48c.84-1.08,1.51-2.32,2.34-3.51a23.08,23.08,0,0,1,2.78-3.32,15.53,15.53,0,0,1,3.5-2.55,2.35,2.35,0,0,1,.61-.24,2.84,2.84,0,0,1,.65,0,5.32,5.32,0,0,1,.57.16l.52.23a10.53,10.53,0,0,1,1.78,1.26A24,24,0,0,1,1117.05,354.64Z"/><path class="cls-7" d="M1117.59,312.14c0,3.88.18,7.75.58,11.61,1,9.47,0,22,.77,24.26.83,2.57,5.79,11.75,5.79,11.75s8.81-4,12.49-8.45,8.44-4.62,14.87-11.12,10.79-16.82,9.36-25.41c-.18-1.11-1.31-12.1-1.56-23.49s-12.21-20-23.59-20-18.2,16.89-18.56,28.28C1117.6,304.21,1117.57,308.59,1117.59,312.14Z"/><path class="cls-8" d="M1159.89,291.29c.25,11.39,1.38,22.38,1.56,23.49a23.28,23.28,0,0,1-.23,8.3c-2.51.46-34.94,1.24-43.34-2.67-.19-2.75-.27-5.5-.29-8.27,0-3.55,0-7.93.15-12.6a42.84,42.84,0,0,1,3.8-15.74l26.67-9.45C1154.75,277.84,1159.73,284,1159.89,291.29Z"/><path class="cls-12" d="M1097.62,243.89c-17.23,0-23.67,13.23-23.67,23.15,0,8.9,2.85,23.15,23.67,23.15,10.41,0,17.46-10.36,17.46-23.15S1108,243.89,1097.62,243.89Z"/><path class="cls-13" d="M1096.86,249.56c-13,0-17.88,10-17.88,17.48,0,6.72,2.16,17.48,17.88,17.48,7.86,0,13.18-7.83,13.18-17.48S1104.72,249.56,1096.86,249.56Z"/><path class="cls-7" d="M1075.89,251.71c1,6,4,8.34,5.34,16.48s-2.23,20,3.08,30.25,13.89,23.84,18.85,24.41,44.67-6.13,58.07-32.78c3.84-7.65,12.06-37.64,5-55.95s-18.48-35.1-44.92-35.61S1070.49,219.72,1075.89,251.71Z"/><path class="cls-8" d="M1098,284.7a4.67,4.67,0,0,0,3.66-1.43,3.76,3.76,0,0,0,.69-2.88,8.55,8.55,0,0,1-7.15,1.55C1094.89,283.84,1096.35,284.66,1098,284.7Z"/><path class="cls-14" d="M1144.78,251.71a17.72,17.72,0,0,0-5.2-9.91s-10.11-4.19-17.92-5a103.42,103.42,0,0,1-15.83-3.06s2.48,6.28,6.67,9c0,0-18.69-.95-24.6-6.48,0,0,1.14,4.56,2.29,7.62,0,0-9.16-.94-12-4.56,0,0-2.28,8-2.28,12.38,0,0-11-15.05-8.2-27s6.61-16.52,6.61-16.52-7.89.76-12.21,0c0,0,10.17-8.9,17.8-14.75s30.51-6.1,30.51-6.1-1.78-6.11.26-15.77c0,0,9.79,14.37,20.15,18.75s9,4,20,6.79,21.43,9.81,25.82,15.72,9.15,12,12,13c0,0-6.86-1-10.3-3.82,0,0,5.73,13-1.84,29.74s-26.52,11.78-30.19,8.08A7.18,7.18,0,0,1,1144.78,251.71Z"/><path class="cls-15" d="M1146.26,259.79a7.18,7.18,0,0,1-1.48-8.08,17.89,17.89,0,0,0-3.69-8.26,111.62,111.62,0,0,0-3.25-50.17,57,57,0,0,0,8.68,2.74A94.21,94.21,0,0,1,1158,220.94c3.33,11.07,4.94,23,1.83,34.18a36.86,36.86,0,0,1-3.42,8.25C1151.71,263,1147.74,261.28,1146.26,259.79Z"/><path class="cls-12" d="M1151.43,245.49s1.31-41.83-20.62-55.18c0,0,17-1.9,26.7,15.07s9.07,31.53,8.82,39.69S1151.43,245.49,1151.43,245.49Z"/><path class="cls-12" d="M1158.12,243.89c17.23,0,23.67,13.23,23.67,23.15,0,8.9-2.85,23.15-23.67,23.15-10.41,0-17.46-10.36-17.46-23.15S1147.71,243.89,1158.12,243.89Z"/><path class="cls-13" d="M1148.83,267c0-11.35,7.49-20.55,16.74-20.55s16.22,9.2,16.22,20.55-7,20.55-16.22,20.55S1148.83,278.39,1148.83,267Z"/><ellipse class="cls-12" cx="1167.77" cy="267.04" rx="11.39" ry="13.99"/><path class="cls-8" d="M1114.46,290.19c-4.66,2.56-19.86,3.42-20.9,3.27s1.09,11.41,4.82,11.83,11.17-.57,14.27-3.56S1114.46,290.19,1114.46,290.19Z"/><path class="cls-2" d="M1113.48,293.56c-.28-1-.51-1.85-.72-2.65-5.12,1.75-15.21,2.49-18.31,2.56a21,21,0,0,0,1.32,4.64c.1-.06,0,.15.08.09A22.67,22.67,0,0,0,1113.48,293.56Z"/><path class="cls-16" d="M1112.41,262.59c0-2.11,1-3.81,2.32-3.81s2.32,1.7,2.32,3.81-1,3.82-2.32,3.82S1112.41,264.7,1112.41,262.59Z"/><path class="cls-16" d="M1085.86,264.37c0-2.11.89-3.81,2-3.81s2,1.7,2,3.81-.9,3.82-2,3.82S1085.86,266.48,1085.86,264.37Z"/><path class="cls-16" d="M1125.4,247.72a25,25,0,0,0-5.05-2,24.07,24.07,0,0,0-5.43-.81,13.73,13.73,0,0,0-5.58.54,10.33,10.33,0,0,0-4.6,3.22l.14.23c1.91-.21,3.49-.68,5.17-.9s3.21-.84,4.92-1a29.74,29.74,0,0,1,10.32.92Z"/><path class="cls-16" d="M1079.15,252.65a10.29,10.29,0,0,1,2.56-.62,20.44,20.44,0,0,1,2.58-.17,11,11,0,0,0,2.56.09,8.16,8.16,0,0,0,1.3-.36,5.28,5.28,0,0,0,1.39-.69l0-.26a5,5,0,0,0-2.73-1.33,6.5,6.5,0,0,0-2.84.45,13.72,13.72,0,0,0-2.7,1,9.14,9.14,0,0,0-2.32,1.67Z"/><path class="cls-12" d="M1106,526.53c0,.59-.81,1.45-2.83,1.45h-63.69c-7.34,0-9-2.91-6.85-6.58s11.51-11.75,34.52-17.38,35.11,7.53,38.85,13.46C1108.73,521.83,1106,526.53,1106,526.53Z"/><path class="cls-13" d="M1032.08,522.5c1.26,4.21,49.86,2,49.86,2s-4.93-6.66-10.38-6.85-8.09,1.7-15.4,3-1.89-3-1.89-3-5.16-1.14-7.26-2.77c0,0,12-3.56,17.09-4.39s17.9-.27,19.55,0c1.17.2,7.1-3.25,14.27-1.52a32.24,32.24,0,0,1,8.07,8.5c2.74,4.35,0,9,0,9,0,.59-.81,1.45-2.83,1.45h-63.69C1032.88,528,1030.84,525.63,1032.08,522.5Z"/><path class="cls-7" d="M1239.91,486.72s-45.28,7-69.83,11.39c-23.25,4.16-43.33,6-49,4.87s-25.16-8.27-31.4-10.84-18.73-4-25.15-2-11.69,4.23-14.26,4.23-2.09,4.16,1.34,5a26,26,0,0,0,6.49.73s-11.63,6.36-13.71,7,.38,4.4,3.2,4.16c0,0-2.47,1.47-1.61,2.94s7,1.47,7,1.47-7.47,3.67-1.23,5.14,13.71-5.51,16.77-6.12,10.16-.25,13.59,2.32,18.12,14.45,38.19,7.35c0,0,136.26,5.52,149.84,5.52s21.8-12,17.44-35.15a175.94,175.94,0,0,0-12.8-40.39l-47,3.3Z"/><path class="cls-8" d="M1068.81,496.42a19,19,0,0,1,2.75-.48Z"/><path class="cls-8" d="M1058.08,500.1a26,26,0,0,1-6.49-.73,4.15,4.15,0,0,1-2.18-1.35c3.81,1.69,8.5.61,11.07,0,1.62-.39,5.61-1.11,8.33-1.6A63.2,63.2,0,0,0,1058.08,500.1Z"/><path class="cls-8" d="M1058.68,505.61c.29-.13.54-.24.7-.29Z"/><path class="cls-8" d="M1044.39,509.8s1.39,1.23,4.22,0c2.36-1,8.08-3.38,10.07-4.19-2.51,1.14-9.3,5-11.11,5.63A3.93,3.93,0,0,1,1044.39,509.8Z"/><path class="cls-8" d="M1051.43,514.3c2.08-.61,6.42-3.24,9.08-4.5a18.38,18.38,0,0,1,6.06-1.41,12.73,12.73,0,0,0-3.67,1.41c-2.66,1.31-10,5.85-10,5.85a22.78,22.78,0,0,1-5.93-.76A17.5,17.5,0,0,0,1051.43,514.3Z"/><path class="cls-8" d="M1090.17,517.3c3.85,2.38,15.24,5.51,22,4.22a10.35,10.35,0,0,0,8.26-7l1.9,6.12s94.5,2.7,113.72,1.83c19-.85,48.62-1.28,52.49-12.69-1.06,13.24-8.23,20.06-18.47,20.06-13.58,0-149.84-5.52-149.84-5.52-20.07,7.1-34.76-4.78-38.19-7.35-2.85-2.14-8.23-2.75-11.72-2.54h0C1075.56,512.62,1086.31,514.91,1090.17,517.3Z"/><path class="cls-8" d="M1239.91,486.72s17.71-2.41,21.26-2.78l-2.69-11-22.4,4.52Z"/><path class="cls-9" d="M1287.23,455.88a4.58,4.58,0,0,1-1.08,4.95c-8.23,8-19,19-30.14,20.66-12.12,1.84-32.31,2.57-33.42,0s-5.14-35.25-12.48-51.77-12.12-25-14-34.52,14.69-31.95,22-33.79,24.23-2.93,31.21,3.31,12.12,30.11,20.2,48.1C1276.12,427.34,1284.31,448.32,1287.23,455.88Z"/><path class="cls-11" d="M1241.78,361.09c-2.24-.3-4.49-.51-6.75-.59s-4.5-.12-6.74,0a60,60,0,0,0-6.69.7c-1.1.17-2.19.44-3.28.68a15.17,15.17,0,0,0-3,1.2c-3.9,2.08-6.93,5.55-9.58,9.13a62.26,62.26,0,0,0-3.69,5.65c-1.16,1.93-2.21,3.93-3.2,6a58.45,58.45,0,0,1,6.26-12.05,37.21,37.21,0,0,1,4.3-5.32,23.26,23.26,0,0,1,5.44-4.25,15.4,15.4,0,0,1,3.27-1.24c1.12-.24,2.24-.5,3.37-.65a44.36,44.36,0,0,1,6.8-.57A58.39,58.39,0,0,1,1241.78,361.09Z"/><path class="cls-10" d="M1278.06,462.64c-.06-5.86-12.45-59.65-23.39-89.64h0c4.65,10.25,9,26.62,14.93,39.82,6.52,14.52,14.71,35.5,17.63,43.06a4.58,4.58,0,0,1-1.08,4.95c-3.15,3.08-6.68,6.58-10.46,9.83C1276,470.38,1278.12,468.12,1278.06,462.64Z"/><path class="cls-17" d="M687.38,402a8.7,8.7,0,0,0,1,5.24A37.51,37.51,0,0,1,693,426.45c-.14,4.38-1,8.86.16,13.08,2,7.28,9.74,11.78,12.21,18.93,2.19,6.33.15,14.3,4.7,19.22,1.13,1.22,2.89,2.15,4.43,1.54a5.36,5.36,0,0,0,1.9-1.59c5.23-5.93,10.82-13.13,9.2-20.87-1.51-7.27-9-12.18-10.42-19.46-1.16-5.95,1.89-12.82-1.52-17.84-.94-1.38-2.29-2.44-3.32-3.76-4.06-5.21-2.55-13.51-7.23-18.17a10.82,10.82,0,0,0-5.51-2.83A8.56,8.56,0,0,0,687.38,402Z"/><path class="cls-18" d="M717.07,494.37c.32-3.87.45-7.75.59-11.64-.17-3.87-.38-7.75-.71-11.62s-.77-7.75-1.45-11.6a49.35,49.35,0,0,0-3.23-11.33c-2.81-7.11-5.08-14.55-7.38-21.91l-3.33-11.11c-1.37-3.63-2.7-7.26-4-10.93.57,3.86,1.45,7.64,2.22,11.45l3.34,11.13c2.31,7.4,4.56,14.79,7.45,22.08a48.24,48.24,0,0,1,3.11,10.94c.67,3.77,1.1,7.6,1.43,11.43s.55,7.69.69,11.55Z"/><path class="cls-18" d="M696.61,415.81a9,9,0,0,0,2.35,2.33,12.12,12.12,0,0,0,1.48.76,5.7,5.7,0,0,1,1.35.93l.17.16.16-.24c.37-.57.82-1.09,1.17-1.66s.7-1.15,1-1.75a13.61,13.61,0,0,0,1.25-3.87l-.11-.06a13.63,13.63,0,0,0-2.32,3.34c-.29.61-.53,1.24-.79,1.86s-.38,1.3-.61,1.94l.33-.08a6,6,0,0,1-1.29-1,13,13,0,0,0-1.15-1.19,9.06,9.06,0,0,0-2.93-1.56Z"/><path class="cls-18" d="M697.55,429.06c.67.55,1.35,1.14,2.07,1.64a16.71,16.71,0,0,0,2.24,1.39c.8.38,1.64.69,2.41,1.12a15.29,15.29,0,0,1,2.16,1.52l.24.2.25-.32a38.93,38.93,0,0,0,2.83-4.38,27,27,0,0,0,2-4.82l-.1-.07a27.73,27.73,0,0,0-3.08,4.24,39.93,39.93,0,0,0-2.3,4.69l.49-.13a14.49,14.49,0,0,1-2.32-1.27c-.73-.49-1.38-1.11-2.09-1.65a14.81,14.81,0,0,0-2.28-1.34,9.93,9.93,0,0,0-2.53-.94Z"/><path class="cls-18" d="M702.26,446.55a11.06,11.06,0,0,0,2.38,1.77,9.15,9.15,0,0,0,2.71,1.08,7,7,0,0,1,2.62,1.25c.78.59,1.54,1.24,2.32,1.75l.59.39.44-.66a19,19,0,0,0,1.68-3,16.11,16.11,0,0,0,1.09-3.36l-.14-.07a16.42,16.42,0,0,0-2.26,2.71,18.76,18.76,0,0,0-1.66,3.05l1-.27a17.74,17.74,0,0,0-2.77-1.1,8.06,8.06,0,0,1-2.56-1.42,8.1,8.1,0,0,0-2.52-1.5,10.16,10.16,0,0,0-2.88-.73Z"/><path class="cls-19" d="M723.24,495.13c3-.5,14.38-4.13,13.59-7.1-3.4-12.73-6.81-27.17,5-33.39,5.68-3,12.8-4.52,16-10.06,3.32-5.71.88-13-2.11-18.87s-6.58-12.2-5.3-18.69c1.34-6.78,7.76-11.79,8.78-18.64,1.41-9.34-7.67-16.87-16.38-20.52-3-1.24-6.23-2.3-9.35-1.55a11.52,11.52,0,0,0-5.7,3.68c-6.12,6.85-5.87,17.18-4.47,26.26s3.53,18.66.11,27.19c-2.43,6.05-7.62,11.75-6.23,18.12.56,2.55,2.15,4.78,2.75,7.32,1.64,6.85-4.05,13-6.66,19.57a24,24,0,0,0,5.33,25.17,5.31,5.31,0,0,0,4.63,1.51Z"/><path class="cls-18" d="M722.17,495.27c.7-5,1.4-10.06,2.3-15,.21-1.25.47-2.49.67-3.74s.3-2.5.51-3.75c.38-2.49.8-5,1.27-7.45a97.53,97.53,0,0,1,3.8-14.53,30.49,30.49,0,0,1,3.18-6.57,9.25,9.25,0,0,1,2.3-2.43,12,12,0,0,0,3.06-2.85,12.57,12.57,0,0,0,2.21-7.9,39.46,39.46,0,0,0-1.13-7.76c-1.17-5-2.64-9.82-3.46-14.74a33.87,33.87,0,0,1,.3-14.6c.4-1.14.71-2.31,1.09-3.47a23,23,0,0,1,1.45-3.4,33.86,33.86,0,0,1,4.24-6.22,28.44,28.44,0,0,0-5.41,5.49,25.24,25.24,0,0,0-2.13,3.31A13.82,13.82,0,0,0,735,393.3a36.16,36.16,0,0,0-.35,15.59c.85,5.1,2.35,10,3.48,14.88a36.3,36.3,0,0,1,1.08,7.28,10.27,10.27,0,0,1-1.76,6.49,9.93,9.93,0,0,1-2.48,2.3,11.2,11.2,0,0,0-2.92,3,32.23,32.23,0,0,0-3.45,7.09,100,100,0,0,0-3.9,14.88c-.48,2.51-.9,5-1.29,7.55-.17,1.26-.41,2.52-.56,3.78s-.18,2.55-.26,3.82C722.26,485.09,722.07,490.18,722.17,495.27Z"/><path class="cls-18" d="M742.28,395.92a7.77,7.77,0,0,0-2.28,1.35,8.15,8.15,0,0,0-1.78,1.88,12.46,12.46,0,0,1-1.52,2.11,20.16,20.16,0,0,1-2,1.68l.9.06c-.31-.66-.68-1.27-1-1.89a19.63,19.63,0,0,0-1.13-1.81c-.39-.59-.84-1.15-1.27-1.72s-.91-1.09-1.3-1.69l-.16,0a6.06,6.06,0,0,0,.45,2.22,15.76,15.76,0,0,0,.92,2A14.48,14.48,0,0,0,733.3,402a20.22,20.22,0,0,0,1.37,1.69l.57.59.33-.53a15.14,15.14,0,0,1,1.48-2.12,10.6,10.6,0,0,1,2-1.64,10,10,0,0,0,1.82-1.79,15.1,15.1,0,0,0,1.51-2.11Z"/><path class="cls-18" d="M731.27,415.19a12,12,0,0,0,1.36,2.4,17.28,17.28,0,0,0,1.74,2.08c.65.63,1.4,1.16,2.1,1.73a12.78,12.78,0,0,1,1.85,2l.18.23.25-.2a20.73,20.73,0,0,0,2.36-2.17c.69-.78,1.42-1.52,2-2.34a30.29,30.29,0,0,0,1.82-2.51c.57-.86,1.09-1.76,1.69-2.59l-.09-.13a10.68,10.68,0,0,0-2.57,1.91,25.55,25.55,0,0,0-2.13,2.29c-.66.8-1.22,1.67-1.84,2.5s-1.11,1.82-1.68,2.53l.42,0a11.38,11.38,0,0,1-1.86-1.94c-.53-.74-1-1.52-1.56-2.23a22.57,22.57,0,0,0-1.86-1.93,19,19,0,0,0-2.11-1.74Z"/><path class="cls-18" d="M751.53,430.07c-1,1.12-1.95,2.16-3,3.14s-2.1,1.86-3.17,2.81a10.2,10.2,0,0,1-3.7,2.15,13.62,13.62,0,0,1-4.25.48l.63.44a28.36,28.36,0,0,0-1-3.44,19.19,19.19,0,0,0-1.46-3.28,16.12,16.12,0,0,0-2.1-3,8,8,0,0,0-3-2.13l-.08.14a11.54,11.54,0,0,1,2.13,2.67,33.19,33.19,0,0,1,1.59,3l1.42,3.13c.46,1,.87,2.14,1.28,3.2l.2.51.43-.07a24.16,24.16,0,0,0,4.33-1.23c1.37-.54,2.79-1,4.14-1.7a10.88,10.88,0,0,0,3.49-2.87,11.06,11.06,0,0,0,2.18-3.92Z"/><path class="cls-18" d="M724.14,441.45a8.55,8.55,0,0,0-.59,3.54,11.55,11.55,0,0,0,.66,3.54,12.5,12.5,0,0,0,1.82,3.1l2.11,2.82.16.2.24-.18a31.9,31.9,0,0,1,3.7-2.08c1.24-.67,2.52-1.23,3.81-1.78s2.57-1.12,3.89-1.62,2.66-1,4-1.48l0-.15a20.41,20.41,0,0,0-8.56,1.74,26.68,26.68,0,0,0-3.84,2.14,25.84,25.84,0,0,0-3.38,2.81l.4,0a9.71,9.71,0,0,1-2-2.79,24,24,0,0,1-1.11-3.18,25.26,25.26,0,0,1-1.21-6.61Z"/><path class="cls-12" d="M702.65,528h32.42c3,0,5.56-2.61,6-6.13L746.22,482c.56-4.36-2.29-8.29-6-8.29H697.51c-3.73,0-6.58,3.93-6,8.29l5.14,39.88C697.08,525.37,699.64,528,702.65,528Z"/><path class="cls-13" d="M697.51,473.68h21.83c-3.73,0-6.59,3.93-6,8.29l5.13,39.88c.45,3.52,3,6.13,6,6.13H702.65c-3,0-5.57-2.61-6-6.13L691.49,482C690.93,477.61,693.78,473.68,697.51,473.68Z"/><path class="cls-20" d="M993.07,517H857.47A2.47,2.47,0,0,0,855,519.5v6a2.47,2.47,0,0,0,2.47,2.48h135.6Z"/><path class="cls-12" d="M1028,524.58V527a1,1,0,0,1-1,1H992.85a1.93,1.93,0,0,1-1.92-1.93v-7.11a1.93,1.93,0,0,1,2.14-1.92l34,6.61A1,1,0,0,1,1028,524.58Z"/><path class="cls-12" d="M756.1,286.55h253.43a12.16,12.16,0,0,1,11.44,8l55.43,153.92c2.31,7.94-3.49,13.89-12.83,14.89-1.43.16-8.23-2.9-18.92-7.93H818.07a12.17,12.17,0,0,1-11.44-8l-50.07-139-13.29-6.95S740.14,286.55,756.1,286.55Z"/><path class="cls-13" d="M1001.6,294.48H748.16a5.2,5.2,0,0,0-4.89,7L798.7,455.36a12.15,12.15,0,0,0,11.44,8h253.43a5.19,5.19,0,0,0,4.89-6.95L1013,302.53A12.17,12.17,0,0,0,1001.6,294.48Z"/><polygon class="cls-20" points="944.38 463.4 933.13 421.68 890.49 463.4 944.38 463.4"/><path class="cls-12" d="M882.68,348.54c1.11,6.88,5.56,9.66,10.9,9.66a8.23,8.23,0,0,0,8.41-9.66c-.94-5.25-5.57-9.65-10.9-9.65A8.24,8.24,0,0,0,882.68,348.54Z"/><polygon class="cls-20" points="1001.78 437.79 998.52 428.74 1002.62 428.74 1005.88 437.79 1001.78 437.79"/><polygon class="cls-20" points="993.16 437.79 989.9 428.74 993.99 428.74 997.25 437.79 993.16 437.79"/><polygon class="cls-20" points="984.53 437.79 981.27 428.74 985.37 428.74 988.63 437.79 984.53 437.79"/><polygon class="cls-20" points="975.9 437.79 972.64 428.74 976.74 428.74 980 437.79 975.9 437.79"/><polygon class="cls-20" points="853.37 437.79 850.12 428.74 854.21 428.74 857.47 437.79 853.37 437.79"/><polygon class="cls-20" points="844.75 437.79 841.49 428.74 845.59 428.74 848.84 437.79 844.75 437.79"/><polygon class="cls-20" points="836.12 437.79 832.86 428.74 836.96 428.74 840.22 437.79 836.12 437.79"/><polygon class="cls-20" points="827.5 437.79 824.24 428.74 828.33 428.74 831.59 437.79 827.5 437.79"/><path class="cls-13" d="M858.8,513.1c2.5-7.19,32.83-105,32.83-105h38.93l2.57,13.63s-26.1,84.23-28.6,91.42q-.28.82-.54,1.65h0c-2.29,7,3.75,7,10.54,7h68.66V528H868.81C855.05,528,856.3,520.29,858.8,513.1Z"/><path class="cls-12" d="M930.56,408.05s-30.33,97.86-32.83,105.05S894,528,907.74,528H862c-13.76,0-12.51-7.69-10-14.88s32.82-105,32.82-105Z"/><path class="cls-21" d="M921,408.05c-3-.14-6-.21-9-.31s-6-.12-9.05-.19-6-.14-9-.14l-9-.05h-.5l-.16.49c-1.26,3.94-2.5,7.88-3.69,11.85l-3.6,11.88c-2.33,7.94-4.65,15.88-6.77,23.89,2.78-7.8,5.37-15.66,7.95-23.53l3.76-11.83c1.27-3.94,2.48-7.89,3.67-11.85l-.66.48,9-.05c3,0,6-.09,9-.14s6-.09,9.05-.19S918,408.19,921,408.05Z"/><path class="cls-22" d="M655.81,552h671.25a12,12,0,0,0,12-12h0a12,12,0,0,0-12-12H655.81a12,12,0,0,0-12,12h0A12,12,0,0,0,655.81,552Z"/><path class="cls-23" d="M655.81,552h671.25a12,12,0,0,0,12-12H643.8A12,12,0,0,0,655.81,552Z"/><circle class="cls-9" cx="696.61" cy="147.77" r="101.04" transform="translate(99.54 535.86) rotate(-45)"/><g class="cls-24"><path class="cls-25" d="M838.68,228.4c1.92,9.64-7,18.21-9.8,19.82s-21.55,9.1-32.82,9.37S769.93,234,776,231.35s47.53-5.63,52.09-5.63S838.68,228.4,838.68,228.4Z"/><path class="cls-2" d="M809.13,223.31c-4.91,28.92-16.59,51.42-20.23,51.82s-38.66-11.65-48.31-16.07,3-72.29,9-71.09,19.18,14.23,30.05,20.48S809.13,223.31,809.13,223.31Z"/><path class="cls-26" d="M751.47,235.34c3.38,5.78,31.2,20.45,46.52,25.8-3.79,8.54-7.36,13.8-9.09,14-3.12.34-29.24-8.44-42.74-13.75C747.3,250.64,751.47,235.34,751.47,235.34Z"/><path class="cls-25" d="M838.72,227.06c.27,11.48-10.06,13.12-22.43,10.18s-32.57-30.8-41.56-43.38-25.77-35-29.24-37-11.43-3.07-18.23-14.39,2.14-35,5.36-37.83,30.78,6.58,34,11.33-2.27,30.25-1.3,33.46,24.43,29.45,34.68,35.88S838.52,218.76,838.72,227.06Z"/><path class="cls-27" d="M746.74,123.56c-3.24-1.61-4-8.91-2-7.62s5.61,1.26,10.44,1.19a41.27,41.27,0,0,0,6.8-.48,40.93,40.93,0,0,1,.47,5.75S750,125.16,746.74,123.56Z"/><path class="cls-27" d="M725.27,125.22c2-3.66,3.49-6.43,3.49-6.43l19,18.25a121.44,121.44,0,0,1,11.53-8.6l1.67,3c-3.07,5.19-5.74,16.17-5.8,18.85,0,0-2.91,3.21-4.54,3.48,0,0,20.29,32.13,33.33,47.93s21.85,29.29,28,33.66c-12.33-7.11-29.15-30.3-37.14-41.48-9-12.59-25.77-35-29.24-37s-11.43-3.07-18.23-14.39C724.56,138,724.35,131.53,725.27,125.22Z"/><path class="cls-28" d="M764.75,127.05c-.23,1.87-19.08,18.21-21,20.08a2.82,2.82,0,0,1-2,0c-5-4.4-26.89-44.14-27.29-45.58s14.17-15,18.6-18.66c.61-.5,3.1-.2,3.51.41C741,89.93,765,124.63,764.75,127.05Z"/><path class="cls-29" d="M762.72,127.05c-.23,1.87-19.08,18.21-21.05,20.08s-28.89-44-29.31-45.58c-.37-1.33,15.81-14.78,20.25-18.44a1.24,1.24,0,0,1,1.85.19C738.94,89.93,763,124.63,762.72,127.05Z"/><path class="cls-30" d="M759.55,124.36c-.22,1.76-17.85,17-19.69,18.79s-27-41.19-27.43-42.64c-.34-1.25,14.79-13.83,18.94-17.25a1.17,1.17,0,0,1,1.74.17C737.3,89.64,759.83,122.1,759.55,124.36Z"/><path class="cls-25" d="M748.24,102c-2.91-1.75-6.5-7.71-6.82-9.72s-.12-3.82,1.45-4.22,6.4,5.89,8.8,7.77,5.34,5.75,4.15,8.37-6.55,1.6-7.12,1.2S748.24,102,748.24,102Z"/><path class="cls-27" d="M742,88.55c-.92,2.28,5.11,11.45,10.39,14.08l-2,2.25-2-.47a15.84,15.84,0,0,1-.11-2.45c-2.91-1.75-6.5-7.71-6.82-9.72C741.18,90.72,741.24,89.32,742,88.55Z"/><path class="cls-25" d="M755,111.22c-5-2.68-9-2.38-11.69-3.48s-3.23-5.33-1.37-6,13.17,1.11,16.09,2.41,4.31,7.32,4.31,7.32Z"/><path class="cls-27" d="M752.83,108.09c2.84.54,3.82,0,3.82,0-.08,1.11,1,1.67,2.14,3.24l-3.76-.11c-5-2.68-9-2.38-11.69-3.48a4.1,4.1,0,0,1-2.31-2.83C742.25,107.22,750,107.56,752.83,108.09Z"/><path class="cls-25" d="M766.61,116c-2.68,3.7-15.82,2.1-18.47,1.69s-4.31-2.07-4-3.76c.55-3.4,17.91-2.8,19.34-2.26S766.61,116,766.61,116Z"/><path class="cls-27" d="M744.2,114.7c1.79,1.79,6.11,2.8,10.82,3.18a45.5,45.5,0,0,0,7,.13c-5,.79-12-.08-13.84-.37C745.93,117.31,744.48,116.08,744.2,114.7Z"/><path class="cls-2" d="M705.12,167.89C733,182.08,737.58,181.53,749.56,188s8.42,74.17,7.66,84.62-3.65,51.94-2.06,63.19,7.79,53,10.54,59.45,8,17.27-.12,23.69-25.24,10.85-62.44,8.44-77.32-25.31-79.09-28.52,17.78-62.26,18.6-73.5a151.91,151.91,0,0,1,4.22-24.91c1.19-5.22-10.65-29.72-12.54-45.38s-18.91-58.88-15.68-66.8,32.87-16.73,53.05-26.8S705.12,167.89,705.12,167.89Z"/><path class="cls-26" d="M732.77,185.45a77.74,77.74,0,0,1-26.38,38.39c-15.1-3.7-30.46-10.36-42.82-19.79a179.23,179.23,0,0,0,45,24.59A66.06,66.06,0,0,0,732.77,185.45Z"/><path class="cls-25" d="M727.08,178.27c-5.36-2.29-12.24-5.44-22-10.38,0,0-13.23-16.5-33.42-6.44-7,3.49-15.14,6.84-22.92,10a100.78,100.78,0,0,0,54,44.07A71.25,71.25,0,0,0,727.08,178.27Z"/><path class="cls-26" d="M624.05,398.84c-1.78-3.21,17.78-62.26,18.6-73.5a151.91,151.91,0,0,1,4.22-24.91c1.19-5.22-10.65-29.72-12.54-45.38a83.9,83.9,0,0,0-2.18-10.35l12.58-9.36c7.37,20.56,12,56.71,19,65.55s24.4,12.45,24.4,12.45-17.2,4-24.7,2.41c0,0-8,31.73-8.09,47.4s1.36,39.36,1.55,42.57c.07,1.2-.2,5.39-.56,10.15C638.27,408.74,625.05,400.65,624.05,398.84Z"/><path class="cls-25" d="M674.87,132.92c-.29,16.76-1.39,28.27-5.11,31.48,0,0,6.39,27.82,31.89,25.44,8.63-.8,7.8-15.26,3.47-22l2.57-20.56Z"/><path class="cls-27" d="M671.7,161.45h0c2.18-5.14,2.94-15.16,3.17-28.53l32.82,14.41L706,160.51h0C700.23,163.12,671.7,161.45,671.7,161.45Z"/><path class="cls-25" d="M584.49,268.47c-5.65,7.77-13.21,27-10.38,35.89s32.11,48.19,45.5,62.92,16.42,17.14,18.75,22,13.73,24.7,16.73,27.71,8.39,3.42,8.39,3.42,4,4.42,11.75,3.61c0,0,6.73,4.62,12.06,5.83,0,0,1.76,3.41,3.55,3.71s4-3.31.76-10.54-8.69-10.24-9.56-14.86-5-14-5-14,9.39,9.62,15.17,10.22,6.56-2.81,3.38-5.62a73.48,73.48,0,0,1-11.1-12.45c-3.83-5.42-8.58-9-15.94-10S656,374.38,654.07,373s-11.52-15.06-18.1-29.79-12.46-33.55-29.17-50.07l7.36-12.85Z"/><path class="cls-27" d="M687,428.89a30.78,30.78,0,0,0-6.92-10.64L679,417.12c-.34-.34-.94-.79-1.07-1-.57-.74-1.07-1.7-1.62-2.58-1.06-1.8-2.1-3.64-3.27-5.42a44.63,44.63,0,0,0,2.15,6,18.8,18.8,0,0,0,1.5,2.92,11.33,11.33,0,0,0,1.17,1.2l1.08,1.11c1.44,1.48,2.81,3,4.19,4.59S685.77,427.19,687,428.89Z"/><path class="cls-27" d="M674.92,422.59c-1.11-2.16-2.42-4-3.6-6s-2.31-3.9-3.43-6a12.45,12.45,0,0,0,2.05,7A15.82,15.82,0,0,0,674.92,422.59Z"/><path class="cls-27" d="M669,423.45a13.14,13.14,0,0,1-5.56-3.08s-5.4-.4-8.39-3.42c-1.22-1.23-3.86-5.29-6.7-10,.06.07,3.43,3.73,5.85,6.75a8.16,8.16,0,0,0,8.3,2.84l-.66-3.92S665.13,421.54,669,423.45Z"/><path class="cls-27" d="M574,294.54c.16,3.66.2,6.58,5.64,16.19,6.12,10.82,42.89,56.44,50.91,64.87s7.78,9,12.53,22.3c-2.14-3.77-3.93-7.06-4.71-8.66-2.33-4.82-5.36-7.23-18.75-22s-42.66-54.09-45.5-62.92C573.29,301.79,573.36,298.33,574,294.54Z"/><path class="cls-27" d="M602.81,284l-3,5a17.11,17.11,0,0,1,7,4.14l5.83-9.89Z"/><path class="cls-2" d="M638.05,256.77c7.68-15.1,10.75-39.61,3.82-52.52s-20-17.55-23.22-16-11.9,21.68-20.06,31-30.45,35.35-31.12,37.55,16.1,19.9,47.67,32.9C618.9,291.22,638.05,256.77,638.05,256.77Z"/><path class="cls-26" d="M614.64,268.47l-5,10.33s24.81-24.87,35.1-43.42a74.57,74.57,0,0,1-6.65,21.39s-19.15,34.45-22.91,32.9c-5.4-2.22-10.34-4.59-14.86-7Z"/><path class="cls-13" d="M709.59,134.42c-1.71-6.91-1.67-14-2.09-21-.3-5.29-.57-10.12-5.37-13.28-3.5-2.31-7.9-2.77-12-2.24-11.08,1.4-13.46,12.2-12.61,22.42.65,7.83,3.7,15.35,6.74,22.54-4.08-.18-9.64-2.31-12.08-5.7a24.31,24.31,0,0,0,6.4,11.72c-11.81-.21-22.77-7.93-29-18.31s-8.24-23-7.57-35.27c.79-14.49,5.31-29,14.27-40.18,18-22.45,52.78-25.07,73.93-5.77a53.12,53.12,0,0,1,15.19,25.16,83.58,83.58,0,0,1,.69,39.09,134.43,134.43,0,0,0-2.15,15.21c-.17,1.65-2.17,20.79-1,20.72-7.46.45-16-1.06-21.08-6.76,2.26,3.92,4.22,7.69,6.48,11.6C718.87,152.77,712,144,709.59,134.42Z"/><path class="cls-25" d="M670.87,108.34c-3.33-2-7.33-3-10.42.1-4.56,4.62,1.91,26.11,11.73,20.89,0,0,14.22,19.88,24.65,25.5s17.87,2.81,21.78-1.2,17.24-20.5,19.63-38c.86-6.23-.06-18.48.13-21.09.59-8,3.63-14.63-2.71-20.93a36.66,36.66,0,0,0-24.29-10.54,39.24,39.24,0,0,0-30.25,13.23C672.8,85.76,671.36,96.4,670.87,108.34Z"/><path class="cls-27" d="M662.06,114.31c.85-3.93,4.21-4.71,6.7-2s3,11.72,2.34,13-5.06,1.22-5.89-1.5,1.72-4.42,4.2-3.61c0,0,.69-4-1.33-6.53s-4.13-1.57-4.65-.92A18.2,18.2,0,0,1,662.06,114.31Z"/><path class="cls-16" d="M689.24,96.9a33,33,0,0,1,3-2.49,20.73,20.73,0,0,1,3.4-2,11.19,11.19,0,0,1,3.78-1.27,7.9,7.9,0,0,1,3.83.5v.19c-.65.25-1.26.42-1.86.59l-1.77.49c-1.15.34-2.35.44-3.51.83a26.2,26.2,0,0,0-3.44,1.45c-1.13.55-2.23,1.21-3.34,1.87Z"/><path class="cls-16" d="M733.66,92.39a13,13,0,0,0-3.4-1.24,18.82,18.82,0,0,0-3.59-.42c-1.22,0-2.42.22-3.62.21a34.34,34.34,0,0,1-3.76-.09l0-.17A9.17,9.17,0,0,1,723,89.15a11.14,11.14,0,0,1,3.91.14,15.84,15.84,0,0,1,3.69,1,11.72,11.72,0,0,1,3.18,1.95Z"/><path class="cls-16" d="M701.16,104c0-1.7-.9-3-1.91-2.9s-1.79,1.56-1.75,3.26.9,3,1.92,2.89S701.21,105.66,701.16,104Z"/><path class="cls-16" d="M728,101.81c0-1.7-.75-3-1.58-2.93s-1.46,1.53-1.41,3.23.75,3,1.58,2.93S728,103.51,728,101.81Z"/><path class="cls-27" d="M709.56,120.47a7.6,7.6,0,0,0,8.29-.08,3.85,3.85,0,0,1-2.15,3,5.17,5.17,0,0,1-3.85-.21C710.68,122.69,710.31,121.51,709.56,120.47Z"/><path class="cls-31" d="M700.26,130.44a233.33,233.33,0,0,0,23.46-1.57c-1.73,5.68-6.27,11.28-12.61,11.29C705.4,140.16,701.62,135.47,700.26,130.44Z"/><path class="cls-32" d="M705.4,138.3a10,10,0,0,1,5.4-.05,8.69,8.69,0,0,1,7.27-.71,11,11,0,0,1-7,2.62A9.61,9.61,0,0,1,705.4,138.3Z"/><path class="cls-2" d="M719.92,133.62a27.38,27.38,0,0,1-17.2-.67c0-.84-.1-1.68-.17-2.53,5.54-.11,14.5-.78,19.3-1.32A16.19,16.19,0,0,1,719.92,133.62Z"/><path class="cls-13" d="M676.48,89.86a78.11,78.11,0,0,0,26.65-5.92c1.6-3.72,1.66-7,1.9-11.06a32.27,32.27,0,0,1,3.9,13.72c5.32-.34,10.66-.63,16-1a33.11,33.11,0,0,0,1.43-13c1.8,4.2,2.7,9.48,3.32,14,3.21-1.14,7.28.53,10.63,1.13,4.16-9.27,3.89-26.05-4.91-33.08-8.56-6.84-23.45-8.7-33.92-7.19-22.27,3.23-39.78,21.72-38.39,44.76.78,13.15,7.38,25.58,16.83,34.74A53.3,53.3,0,0,1,676.48,89.86Z"/></g><circle class="cls-3" cx="897.91" cy="154.48" r="58.76" transform="translate(522.53 984.66) rotate(-75.43)"/><rect class="cls-6" x="864.1" y="131.48" width="67.61" height="46" rx="3.43" transform="translate(1795.81 308.97) rotate(180)"/><path class="cls-4" d="M868.92,177.49h58a4.82,4.82,0,0,0,4.82-4.82l-33.8-21.26L864.1,172.67A4.82,4.82,0,0,0,868.92,177.49Z"/><path class="cls-9" d="M868.92,131.48h58a4.82,4.82,0,0,1,4.82,4.82l-33.8,21.26L864.1,136.3A4.82,4.82,0,0,1,868.92,131.48Z"/><circle class="cls-3" cx="1314.46" cy="239.03" r="58.75" transform="translate(-20.03 302.85) rotate(-13.04)"/><path class="cls-6" d="M1330.94,227.54H1325a20.76,20.76,0,0,0-2.69-6.47l4.18-4.18a1.47,1.47,0,0,0,0-2.07l-4.64-4.64a1.47,1.47,0,0,0-2.07,0l-4.18,4.18a21.15,21.15,0,0,0-6.47-2.69v-5.91a1.47,1.47,0,0,0-1.46-1.46h-6.57a1.46,1.46,0,0,0-1.46,1.46v5.91a21.31,21.31,0,0,0-6.48,2.69l-4.18-4.18a1.45,1.45,0,0,0-2.06,0l-4.65,4.64a1.47,1.47,0,0,0,0,2.07l4.18,4.18a21,21,0,0,0-2.68,6.47h-5.91a1.46,1.46,0,0,0-1.46,1.46v6.57a1.46,1.46,0,0,0,1.46,1.46h5.91a21,21,0,0,0,2.68,6.48l-4.18,4.18a1.45,1.45,0,0,0,0,2.06l4.65,4.65a1.45,1.45,0,0,0,2.06,0l4.18-4.18a21.31,21.31,0,0,0,6.48,2.69v5.9a1.46,1.46,0,0,0,1.46,1.46h6.57a1.46,1.46,0,0,0,1.46-1.46v-5.9a21.15,21.15,0,0,0,6.47-2.69l4.18,4.18a1.47,1.47,0,0,0,2.07,0l4.64-4.65a1.45,1.45,0,0,0,0-2.06l-4.18-4.18A20.82,20.82,0,0,0,1325,237h5.91a1.46,1.46,0,0,0,1.46-1.46V229A1.47,1.47,0,0,0,1330.94,227.54Zm-26.53,13.81a9.07,9.07,0,1,1,9.07-9.06A9.06,9.06,0,0,1,1304.41,241.35Z"/><path class="cls-9" d="M1304.41,219.67A12.62,12.62,0,1,0,1317,232.29,12.62,12.62,0,0,0,1304.41,219.67Zm0,20.32a7.71,7.71,0,1,1,7.71-7.7A7.7,7.7,0,0,1,1304.41,240Z"/><path class="cls-6" d="M1356.17,253.42h-3a10.73,10.73,0,0,0-1.37-3.31l2.13-2.13a.74.74,0,0,0,0-1.06l-2.37-2.37a.74.74,0,0,0-1,0l-2.14,2.14a10.89,10.89,0,0,0-3.31-1.38v-3a.74.74,0,0,0-.74-.75h-3.36a.75.75,0,0,0-.75.75v3a10.84,10.84,0,0,0-3.3,1.38l-2.14-2.14a.74.74,0,0,0-1,0l-2.38,2.37a.75.75,0,0,0,0,1.06l2.14,2.13a10.73,10.73,0,0,0-1.37,3.31h-3a.76.76,0,0,0-.75.75v3.35a.75.75,0,0,0,.75.75h3a10.73,10.73,0,0,0,1.37,3.31l-2.14,2.13a.75.75,0,0,0,0,1.06l2.38,2.37a.74.74,0,0,0,1,0l2.14-2.13a10.57,10.57,0,0,0,3.3,1.37v3a.75.75,0,0,0,.75.74h3.36a.74.74,0,0,0,.74-.74v-3a10.63,10.63,0,0,0,3.31-1.37l2.14,2.13a.74.74,0,0,0,1,0l2.37-2.37a.74.74,0,0,0,0-1.06l-2.13-2.13a10.73,10.73,0,0,0,1.37-3.31h3a.74.74,0,0,0,.74-.75v-3.35A.75.75,0,0,0,1356.17,253.42Zm-13.55,7.06a4.63,4.63,0,1,1,4.63-4.63A4.63,4.63,0,0,1,1342.62,260.48Z"/><path class="cls-9" d="M1342.62,249.4a6.45,6.45,0,1,0,6.45,6.45A6.45,6.45,0,0,0,1342.62,249.4Zm0,10.38a3.94,3.94,0,1,1,3.94-3.93A3.93,3.93,0,0,1,1342.62,259.78Z"/><circle class="cls-3" cx="1049.39" cy="72.61" r="58.76" transform="translate(48.69 396.79) rotate(-21.91)"/><rect class="cls-2" x="1015.59" y="45" width="67.61" height="57.81" rx="3.3" transform="translate(2098.79 147.81) rotate(180)"/><path class="cls-9" d="M1015.59,57.1h67.61V49.64a4.65,4.65,0,0,0-4.65-4.64h-58.32a4.64,4.64,0,0,0-4.64,4.64Z"/><path class="cls-2" d="M1067.05,47.58h0a1.38,1.38,0,0,0,1.37-1.37V43.79a1.37,1.37,0,0,0-1.37-1.37h0a1.37,1.37,0,0,0-1.37,1.37v2.42A1.37,1.37,0,0,0,1067.05,47.58Z"/><path class="cls-2" d="M1071,47.58h0a1.38,1.38,0,0,0,1.37-1.37V43.79a1.37,1.37,0,0,0-1.37-1.37h0a1.37,1.37,0,0,0-1.37,1.37v2.42A1.37,1.37,0,0,0,1071,47.58Z"/><path class="cls-2" d="M1027.82,47.58h0a1.37,1.37,0,0,0,1.37-1.37V43.79a1.37,1.37,0,0,0-1.37-1.37h0a1.37,1.37,0,0,0-1.37,1.37v2.42A1.37,1.37,0,0,0,1027.82,47.58Z"/><path class="cls-2" d="M1031.74,47.58h0a1.37,1.37,0,0,0,1.37-1.37V43.79a1.37,1.37,0,0,0-1.37-1.37h0a1.37,1.37,0,0,0-1.37,1.37v2.42A1.37,1.37,0,0,0,1031.74,47.58Z"/><rect class="cls-6" x="1052.54" y="64.29" width="5.86" height="5.86" rx="0.79"/><rect class="cls-6" x="1038.61" y="64.29" width="5.86" height="5.86" rx="0.79"/><rect class="cls-6" x="1024.67" y="64.29" width="5.86" height="5.86" rx="0.79"/><rect class="cls-6" x="1066.48" y="76.29" width="5.86" height="5.86" rx="0.79"/><rect class="cls-6" x="1052.54" y="76.29" width="5.86" height="5.86" rx="0.79"/><rect class="cls-6" x="1038.61" y="76.29" width="5.86" height="5.86" rx="0.79"/><rect class="cls-6" x="1024.67" y="76.29" width="5.86" height="5.86" rx="0.79"/><rect class="cls-6" x="1066.48" y="88.29" width="5.86" height="5.86" rx="0.79"/><rect class="cls-6" x="1052.54" y="88.29" width="5.86" height="5.86" rx="0.79"/><rect class="cls-6" x="1038.61" y="88.29" width="5.86" height="5.86" rx="0.79"/><circle class="cls-3" cx="1217.59" cy="102.81" r="58.75" transform="translate(283.93 891.08) rotate(-45)"/><circle class="cls-2" cx="1217.59" cy="102.81" r="40.24" transform="translate(283.93 891.08) rotate(-45)"/><path class="cls-9" d="M1217.59,62.56a40.25,40.25,0,1,0,40.24,40.25A40.24,40.24,0,0,0,1217.59,62.56Zm3.37,74.53V131.6a1.85,1.85,0,0,0-1.85-1.85h-3a1.85,1.85,0,0,0-1.85,1.85v5.49a34.46,34.46,0,0,1-30.92-30.91h5.5a1.85,1.85,0,0,0,1.85-1.85v-3a1.85,1.85,0,0,0-1.85-1.85h-5.5a34.47,34.47,0,0,1,30.92-30.91V74a1.85,1.85,0,0,0,1.85,1.85h3A1.85,1.85,0,0,0,1221,74v-5.5a34.47,34.47,0,0,1,30.92,30.91h-5.5a1.85,1.85,0,0,0-1.85,1.85v3a1.85,1.85,0,0,0,1.85,1.85h5.5A34.46,34.46,0,0,1,1221,137.09Z"/><text class="cls-33" transform="translate(1193.75 112.4)"><tspan class="cls-34">2</tspan><tspan class="cls-35" x="13.48" y="0">4</tspan><tspan class="cls-36" x="27.72" y="0">/</tspan><tspan x="37.52" y="0">7</tspan></text></g></svg>